<svg width="9" height="6" viewBox="0 0 9 6" fill="none" xmlns="http://www.w3.org/2000/svg">
<path fill-rule="evenodd" clip-rule="evenodd" d="M8.12674 2.51406L6.50929 0.310593C6.42713 0.198552 6.29534 0.198552 6.21318 0.310593C6.13103 0.422633 6.13103 0.602365 6.21318 0.714405L7.47292 2.43236H0.304764C0.188376 2.43236 0.0942383 2.56074 0.0942383 2.71946C0.0942383 2.87819 0.188376 3.00657 0.304764 3.00657H7.47292L6.21318 4.71985C6.13103 4.83189 6.13103 5.01162 6.21318 5.12366C6.25426 5.17968 6.30732 5.20769 6.36209 5.20769C6.41686 5.20769 6.46992 5.17968 6.511 5.12366L8.12846 2.91787C8.2089 2.80816 8.2089 2.6261 8.12674 2.51406Z" fill="white"/>
</svg>
