<svg width="9" height="6" viewBox="0 0 9 6" fill="none" xmlns="http://www.w3.org/2000/svg">
<path fill-rule="evenodd" clip-rule="evenodd" d="M0.155971 2.70253L1.77343 0.499069C1.85558 0.387029 1.98738 0.387029 2.06953 0.499069C2.15169 0.61111 2.15169 0.790841 2.06953 0.902882L0.809799 2.62084H7.97795C8.09434 2.62084 8.18848 2.74922 8.18848 2.90794C8.18848 3.06666 8.09434 3.19504 7.97795 3.19504H0.809799L2.06953 4.90833C2.15169 5.02037 2.15169 5.2001 2.06953 5.31214C2.02845 5.36816 1.97539 5.39617 1.92062 5.39617C1.86585 5.39617 1.81279 5.36816 1.77171 5.31214L0.15426 3.10634C0.0738144 2.99664 0.0738144 2.81457 0.155971 2.70253Z" fill="white"/>
</svg>
