<svg width="1499" height="1158" viewBox="0 0 1499 1158" fill="none" xmlns="http://www.w3.org/2000/svg">
<g style="mix-blend-mode:soft-light" opacity="0.2">
<path d="M432.084 500.505C238.649 406.324 109.589 411.272 37.6107 515.524C23.1318 536.375 10.8403 561.289 0.736328 590.268V613.415C11.4653 578.076 25.2151 548.567 41.7773 524.536C111.985 422.757 239.066 418.34 430.105 511.637C562.707 576.485 669.997 665.365 756.245 736.928C758.433 738.695 760.516 740.462 762.599 742.229H778.432C772.182 737.105 765.724 731.804 759.266 726.326C672.913 654.586 565.102 565.176 432.084 500.505Z" fill="white"/>
<path d="M1335.92 282.281C1281.97 315.854 1249.99 403.32 1205.3 524.535C1183.74 583.376 1159.05 649.992 1128.22 720.848C1124.89 728.446 1121.66 735.514 1118.32 742.405H1126.76C1128.95 737.811 1131.14 733.04 1133.32 728.093C1164.47 657.236 1189.05 590.267 1210.82 531.073C1254.57 411.625 1286.34 325.396 1338.11 293.236C1378.32 268.322 1429.15 277.157 1500.61 323.982V311.79C1428.84 265.495 1377.38 257.013 1335.92 282.281Z" fill="white"/>
<path d="M1466.96 635.326C1417.8 637.623 1375.4 673.669 1340.92 742.405H1349.57C1382.07 681.091 1421.44 648.932 1466.96 646.635C1478.11 646.104 1489.36 647.341 1500.71 650.168V638.86C1488.11 635.856 1476.86 634.972 1466.96 635.326Z" fill="white"/>
<path d="M130.289 1205.56C173.088 1229.87 228.18 1222.02 294.031 1182.31L286.721 1177.69C226.506 1212.19 176.043 1218.36 136.327 1196C126.619 1190.5 117.767 1183.44 109.676 1174.99L103.639 1184.55C112.692 1193.82 121.733 1200.58 130.289 1205.56Z" fill="white"/>
<path d="M180.214 697.524C165.527 708.479 152.61 723.499 141.569 742.405H150.944C160.214 728.269 170.839 716.607 182.922 707.772C242.713 662.714 329.587 686.568 426.877 742.405H446.876C340.941 678.264 245.317 648.401 180.214 697.524Z" fill="white"/>
<path d="M277.711 204.71C197.087 272.739 101.36 299.598 0.736328 282.811V294.297C102.401 311.083 198.858 283.518 280.419 214.959C342.085 162.833 393.126 89.5026 430.209 0.269531H422.292C386.043 85.0851 336.981 154.705 277.711 204.71Z" fill="white"/>
<path d="M0.736328 150.64C143.442 142.512 249.066 92.3298 316.356 0.269531H305.523C239.17 85.0851 137.193 131.91 0.736328 139.685V150.64Z" fill="white"/>
<path d="M619.371 406.324C674.891 503.508 744.682 585.32 815.931 636.563C866.555 673.14 915.408 691.516 958.533 691.516C978.532 691.516 997.178 687.452 1014.05 679.501C1071.34 651.936 1109.57 577.722 1124.26 464.635C1154.68 230.685 1211.76 87.3822 1294.36 38.4365C1356.86 1.50643 1428.63 20.9433 1500.71 70.2424V57.8734C1428.11 9.10448 1355.71 -9.97902 1292.17 27.4812C1207.28 77.6637 1148.43 223.794 1117.59 461.984C1103.43 572.068 1067.8 641.334 1012.07 668.015C907.7 718.551 740.619 602.46 624.059 397.842C549.581 267.792 510.623 127.493 511.873 0.269531H505.311C503.957 130.497 543.643 273.623 619.371 406.324Z" fill="white"/>
<path d="M646.664 227.681C678.851 312.85 727.705 376.108 784.37 406.324C808.12 419.223 832.599 425.231 856.973 425.231C900.723 425.231 944.889 405.264 986.034 366.037C1058.22 296.947 1119.37 174.141 1168.32 0.44623H1160.93C1112.8 169.724 1053.01 289.172 982.701 356.672C902.702 433.182 831.661 420.283 786.141 396.252C731.038 366.92 683.539 305.075 652.185 222.204C626.664 154.528 613.852 77.6637 614.79 0.269531H608.227C607.29 79.7841 620.519 158.592 646.664 227.681Z" fill="white"/>
<path d="M810.828 82.2579C821.453 82.2579 832.807 79.254 845.307 73.5996C879.786 57.52 911.973 31.722 942.285 0.269531H928.743C901.869 26.5977 873.536 48.155 843.536 62.2909C808.224 78.9006 780.933 70.2424 761.975 37.3763C756.142 27.1278 751.142 14.5822 746.975 0.269531H739.267C744.163 18.2928 750.1 33.489 757.079 45.6812C771.037 70.0657 789.058 82.2579 810.828 82.2579Z" fill="white"/>
<path fill-rule="evenodd" clip-rule="evenodd" d="M306.565 344.479C307.711 366.39 321.669 383.353 349.481 395.722C380.106 409.681 409.48 416.396 434.584 416.396C472.083 416.396 500.312 401.377 509.27 372.751C520.833 335.821 497.708 291.293 476.354 260.017C449.271 220.437 410.834 212.132 378.439 238.46C329.065 278.924 304.794 314.264 306.565 344.479ZM417.398 234.749C436.981 234.749 456.251 246.411 471.772 268.675C499.792 309.316 510.625 343.596 503.125 367.45C490.001 409.328 421.877 417.103 350.94 384.767C326.982 373.811 313.858 359.499 312.92 343.242C311.566 319.211 335.836 285.639 380.94 248.708C392.606 239.343 405.002 234.749 417.398 234.749ZM870.619 853.926C855.098 831.662 835.828 820 816.244 820C803.849 820 791.453 824.594 779.787 833.959C734.683 870.89 710.413 904.462 711.767 928.493C712.704 944.75 725.829 959.062 749.787 970.018C820.724 1002.35 888.848 994.579 901.972 952.701C909.472 928.847 898.639 894.567 870.619 853.926Z" fill="white"/>
</g>
</svg>
