<svg width="932" height="379" viewBox="0 0 932 379" fill="none" xmlns="http://www.w3.org/2000/svg">
        <path opacity="0.60681" d="M38.9132 1.48555V377.839" stroke="#B0BEC5" stroke-linecap="square" />
        <g opacity="0.5">
            <path opacity="0.60681" d="M118.101 1.48592V377.84" stroke="#8CA0B3" stroke-width="0.5"
                stroke-linecap="square" stroke-dasharray="2 2 2" />
            <path opacity="0.60681" d="M199.303 1.48592V377.84" stroke="#8CA0B3" stroke-width="0.5"
                stroke-linecap="square" stroke-dasharray="2 2 2" />
            <path opacity="0.60681" d="M280.506 1.48592V377.84" stroke="#8CA0B3" stroke-width="0.5"
                stroke-linecap="square" stroke-dasharray="2 2 2" />
            <path opacity="0.60681" d="M361.708 1.48592V377.84" stroke="#8CA0B3" stroke-width="0.5"
                stroke-linecap="square" stroke-dasharray="2 2 2" />
            <path opacity="0.60681" d="M442.91 1.48592V377.84" stroke="#8CA0B3" stroke-width="0.5"
                stroke-linecap="square" stroke-dasharray="2 2 2" />
            <path opacity="0.60681" d="M524.112 1.48592V377.84" stroke="#8CA0B3" stroke-width="0.5"
                stroke-linecap="square" stroke-dasharray="2 2 2" />
            <path opacity="0.60681" d="M605.315 1.48592V377.84" stroke="#8CA0B3" stroke-width="0.5"
                stroke-linecap="square" stroke-dasharray="2 2 2" />
            <path opacity="0.60681" d="M686.516 1.48592V377.84" stroke="#8CA0B3" stroke-width="0.5"
                stroke-linecap="square" stroke-dasharray="2 2 2" />
            <path opacity="0.60681" d="M767.72 1.48592V377.84" stroke="#8CA0B3" stroke-width="0.5"
                stroke-linecap="square" stroke-dasharray="2 2 2" />
            <path opacity="0.60681" d="M848.922 1.48592V377.84" stroke="#8CA0B3" stroke-width="0.5"
                stroke-linecap="square" stroke-dasharray="2 2 2" />
            <path opacity="0.60681" d="M929.88 0.643509V376.997" stroke="#8CA0B3" stroke-width="0.5"
                stroke-linecap="square" stroke-dasharray="2 2 2" />
        </g>
        <g opacity="0.5">
            <path d="M39.8267 377.616H928.465" stroke="#CFD8DC" stroke-linecap="square" />
            <path opacity="0.756413" d="M39.8267 315.717H928.465" stroke="#8CA0B3" stroke-width="0.5"
                stroke-linecap="square" stroke-dasharray="2 2 2 2" />
            <path opacity="0.756413" d="M40.6973 252.707H929.336" stroke="#8CA0B3" stroke-width="0.5"
                stroke-linecap="square" stroke-dasharray="2 2 2 2" />
            <path opacity="0.756413" d="M39.8267 187.274H928.465" stroke="#8CA0B3" stroke-width="0.5"
                stroke-linecap="square" stroke-dasharray="2 2 2 2" />
            <path opacity="0.756413" d="M40.6973 125.475H929.336" stroke="#8CA0B3" stroke-width="0.5"
                stroke-linecap="square" stroke-dasharray="2 2 2 2" />
            <path opacity="0.756413" d="M39.8267 63.676H928.465" stroke="#8CA0B3" stroke-width="0.5"
                stroke-linecap="square" stroke-dasharray="2 2 2 2" />
            <path opacity="0.756413" d="M39.8271 1.87774H928.465" stroke="#8CA0B3" stroke-width="0.5"
                stroke-linecap="square" stroke-dasharray="2 2 2" />
        </g>
        <path opacity="0.651154" fill-rule="evenodd" clip-rule="evenodd"
            d="M39.4971 377.159L116.327 316.634C117.771 315.497 119.008 314.12 119.983 312.563L190.023 200.816C195.1 192.716 206.101 190.846 213.569 196.814L344.956 301.812C353.207 308.406 365.471 305.337 369.644 295.634L441.352 128.875C442.453 126.314 444.204 124.085 446.432 122.409L514.856 70.9354C520.574 66.6339 528.453 66.6518 534.151 70.9792L605.364 125.059L682.545 183.971C685.334 186.1 688.745 187.253 692.253 187.253H762.382C766.039 187.253 769.585 188.506 772.431 190.803L838.6 244.214C844.44 248.928 852.772 248.949 858.636 244.265L930.775 186.64V376.849L39.4971 377.159Z"
            fill="url(#paint0_linear_0_1)" />
        <path
            d="M42.5005 373.5L116.157 317.903C117.712 316.729 119.04 315.281 120.075 313.63L190.024 202.028C195.101 193.927 206.102 192.058 213.57 198.026L344.957 303.024C353.208 309.618 365.472 306.549 369.644 296.846L441.352 130.086C442.454 127.526 444.205 125.297 446.432 123.621L514.856 72.1471C520.574 67.8456 528.453 67.8635 534.152 72.1909L605.365 126.271L682.546 185.183C685.334 187.311 688.745 188.464 692.253 188.464H762.382C766.039 188.464 769.586 189.717 772.432 192.014L838.443 245.299C844.355 250.07 852.807 250.027 858.669 245.195L927.5 188.464"
            stroke="#59BCFB" stroke-width="8" stroke-linecap="round" stroke-linejoin="round" />
        <path opacity="0.647563" fill-rule="evenodd" clip-rule="evenodd"
            d="M39.0982 377.833L38.7661 232.284L104.809 189.603C111.926 185.004 121.436 187.208 125.804 194.468L182.01 287.891C188.643 298.916 205.166 297.022 209.133 284.783L271.11 93.5659C275.002 81.5569 291.083 79.4337 297.959 90.021L352.67 174.266C357.44 181.612 367.465 183.325 374.404 177.979L433.922 132.127C439.315 127.972 446.83 127.97 452.225 132.122L520.169 184.413C522.797 186.435 526.02 187.53 529.336 187.525L759.444 187.246C764.603 187.24 769.404 189.886 772.154 194.252L844.307 308.811C847.038 313.147 851.793 315.789 856.918 315.817L931.002 316.219V377.036L39.0982 377.833Z"
            fill="url(#paint1_linear_0_1)" />
        <path
            d="M42.7661 233.495L103.499 188.918C111.154 183.299 121.99 185.546 126.781 193.745L180.961 286.47C187.933 298.403 205.735 296.478 209.996 283.332L270.463 96.7738C274.614 83.9642 291.768 81.6995 299.102 92.9926L352.079 174.569C357.168 182.405 367.861 184.231 375.262 178.529L433.312 133.808C439.065 129.376 447.08 129.374 452.835 133.803L519.899 185.416C522.702 187.573 526.14 188.741 529.677 188.737L758.891 188.458C764.395 188.452 769.516 191.274 772.449 195.931L844.016 309.561C846.928 314.185 851.999 317.003 857.463 317.034L927.002 317.431"
            stroke="#06864D" stroke-width="8" stroke-linecap="round" stroke-linejoin="round" />
        <path
            d="M0.84 234.341C1.072 234.245 1.312 234.137 1.56 234.017C1.816 233.889 2.064 233.753 2.304 233.609C2.544 233.457 2.772 233.301 2.988 233.141C3.212 232.973 3.412 232.797 3.588 232.613H4.836V240.929H3.048V234.941C2.808 235.101 2.54 235.249 2.244 235.385C1.948 235.513 1.66 235.625 1.38 235.721L0.84 234.341ZM13.2283 236.753C13.2283 238.153 12.9603 239.229 12.4243 239.981C11.8963 240.725 11.1643 241.097 10.2283 241.097C9.29231 241.097 8.55631 240.725 8.02031 239.981C7.49231 239.229 7.22831 238.153 7.22831 236.753C7.22831 236.057 7.29631 235.441 7.43231 234.905C7.57631 234.369 7.78031 233.917 8.04431 233.549C8.30831 233.181 8.62431 232.901 8.99231 232.709C9.36031 232.517 9.77231 232.421 10.2283 232.421C11.1643 232.421 11.8963 232.797 12.4243 233.549C12.9603 234.293 13.2283 235.361 13.2283 236.753ZM11.4043 236.753C11.4043 236.337 11.3843 235.961 11.3443 235.625C11.3043 235.281 11.2403 234.985 11.1523 234.737C11.0643 234.489 10.9443 234.297 10.7923 234.161C10.6403 234.025 10.4523 233.957 10.2283 233.957C10.0043 233.957 9.81631 234.025 9.66431 234.161C9.52031 234.297 9.40031 234.489 9.30431 234.737C9.21631 234.985 9.15231 235.281 9.11231 235.625C9.07231 235.961 9.05231 236.337 9.05231 236.753C9.05231 237.169 9.07231 237.549 9.11231 237.893C9.15231 238.237 9.21631 238.533 9.30431 238.781C9.40031 239.029 9.52031 239.221 9.66431 239.357C9.81631 239.493 10.0043 239.561 10.2283 239.561C10.4523 239.561 10.6403 239.493 10.7923 239.357C10.9443 239.221 11.0643 239.029 11.1523 238.781C11.2403 238.533 11.3043 238.237 11.3443 237.893C11.3843 237.549 11.4043 237.169 11.4043 236.753Z"
            fill="#838383" />
        <path
            d="M5.952 189.264C5.952 189.568 5.892 189.86 5.772 190.14C5.652 190.42 5.496 190.692 5.304 190.956C5.112 191.212 4.896 191.46 4.656 191.7C4.416 191.94 4.18 192.168 3.948 192.384C3.828 192.496 3.696 192.624 3.552 192.768C3.416 192.904 3.284 193.044 3.156 193.188C3.028 193.332 2.912 193.468 2.808 193.596C2.712 193.716 2.652 193.816 2.628 193.896H6.204V195.396H0.66C0.644 195.308 0.636 195.196 0.636 195.06C0.636 194.924 0.636 194.828 0.636 194.772C0.636 194.388 0.696 194.036 0.816 193.716C0.944 193.396 1.108 193.1 1.308 192.828C1.508 192.548 1.732 192.288 1.98 192.048C2.236 191.808 2.488 191.568 2.736 191.328C2.928 191.144 3.108 190.972 3.276 190.812C3.444 190.644 3.592 190.484 3.72 190.332C3.848 190.172 3.948 190.016 4.02 189.864C4.092 189.704 4.128 189.544 4.128 189.384C4.128 189.032 4.028 188.784 3.828 188.64C3.628 188.496 3.38 188.424 3.084 188.424C2.868 188.424 2.664 188.46 2.472 188.532C2.288 188.596 2.116 188.676 1.956 188.772C1.804 188.86 1.672 188.952 1.56 189.048C1.448 189.136 1.364 189.208 1.308 189.264L0.42 188.016C0.772 187.688 1.18 187.42 1.644 187.212C2.116 186.996 2.62 186.888 3.156 186.888C3.644 186.888 4.064 186.944 4.416 187.056C4.768 187.168 5.056 187.328 5.28 187.536C5.512 187.736 5.68 187.984 5.784 188.28C5.896 188.568 5.952 188.896 5.952 189.264ZM13.2283 191.22C13.2283 192.62 12.9603 193.696 12.4243 194.448C11.8963 195.192 11.1643 195.564 10.2283 195.564C9.29231 195.564 8.55631 195.192 8.02031 194.448C7.49231 193.696 7.22831 192.62 7.22831 191.22C7.22831 190.524 7.29631 189.908 7.43231 189.372C7.57631 188.836 7.78031 188.384 8.04431 188.016C8.30831 187.648 8.62431 187.368 8.99231 187.176C9.36031 186.984 9.77231 186.888 10.2283 186.888C11.1643 186.888 11.8963 187.264 12.4243 188.016C12.9603 188.76 13.2283 189.828 13.2283 191.22ZM11.4043 191.22C11.4043 190.804 11.3843 190.428 11.3443 190.092C11.3043 189.748 11.2403 189.452 11.1523 189.204C11.0643 188.956 10.9443 188.764 10.7923 188.628C10.6403 188.492 10.4523 188.424 10.2283 188.424C10.0043 188.424 9.81631 188.492 9.66431 188.628C9.52031 188.764 9.40031 188.956 9.30431 189.204C9.21631 189.452 9.15231 189.748 9.11231 190.092C9.07231 190.428 9.05231 190.804 9.05231 191.22C9.05231 191.636 9.07231 192.016 9.11231 192.36C9.15231 192.704 9.21631 193 9.30431 193.248C9.40031 193.496 9.52031 193.688 9.66431 193.824C9.81631 193.96 10.0043 194.028 10.2283 194.028C10.4523 194.028 10.6403 193.96 10.7923 193.824C10.9443 193.688 11.0643 193.496 11.1523 193.248C11.2403 193 11.3043 192.704 11.3443 192.36C11.3843 192.016 11.4043 191.636 11.4043 191.22Z"
            fill="#838383" />
        <path
            d="M2.736 146.518C2.52 146.518 2.292 146.502 2.052 146.47C1.812 146.446 1.58 146.41 1.356 146.362C1.132 146.314 0.928 146.262 0.744 146.206C0.56 146.15 0.416 146.098 0.312 146.05L0.66 144.562C0.868 144.65 1.132 144.746 1.452 144.85C1.78 144.946 2.184 144.994 2.664 144.994C3.216 144.994 3.62 144.89 3.876 144.682C4.132 144.474 4.26 144.194 4.26 143.842C4.26 143.626 4.212 143.446 4.116 143.302C4.028 143.15 3.904 143.03 3.744 142.942C3.584 142.846 3.392 142.782 3.168 142.75C2.952 142.71 2.72 142.69 2.472 142.69H1.776V141.25H2.568C2.744 141.25 2.912 141.234 3.072 141.202C3.24 141.17 3.388 141.118 3.516 141.046C3.644 140.966 3.744 140.862 3.816 140.734C3.896 140.598 3.936 140.43 3.936 140.23C3.936 140.078 3.904 139.946 3.84 139.834C3.776 139.722 3.692 139.63 3.588 139.558C3.492 139.486 3.376 139.434 3.24 139.402C3.112 139.362 2.98 139.342 2.844 139.342C2.5 139.342 2.18 139.394 1.884 139.498C1.596 139.602 1.332 139.73 1.092 139.882L0.456 138.574C0.584 138.494 0.732 138.41 0.9 138.322C1.076 138.234 1.268 138.154 1.476 138.082C1.684 138.01 1.904 137.95 2.136 137.902C2.376 137.854 2.628 137.83 2.892 137.83C3.38 137.83 3.8 137.89 4.152 138.01C4.512 138.122 4.808 138.286 5.04 138.502C5.272 138.71 5.444 138.958 5.556 139.246C5.668 139.526 5.724 139.834 5.724 140.17C5.724 140.498 5.632 140.818 5.448 141.13C5.264 141.434 5.016 141.666 4.704 141.826C5.136 142.002 5.468 142.266 5.7 142.618C5.94 142.962 6.06 143.378 6.06 143.866C6.06 144.25 5.996 144.606 5.868 144.934C5.74 145.254 5.54 145.534 5.268 145.774C4.996 146.006 4.648 146.19 4.224 146.326C3.808 146.454 3.312 146.518 2.736 146.518ZM13.2283 142.162C13.2283 143.562 12.9603 144.638 12.4243 145.39C11.8963 146.134 11.1643 146.506 10.2283 146.506C9.29231 146.506 8.55631 146.134 8.02031 145.39C7.49231 144.638 7.22831 143.562 7.22831 142.162C7.22831 141.466 7.29631 140.85 7.43231 140.314C7.57631 139.778 7.78031 139.326 8.04431 138.958C8.30831 138.59 8.62431 138.31 8.99231 138.118C9.36031 137.926 9.77231 137.83 10.2283 137.83C11.1643 137.83 11.8963 138.206 12.4243 138.958C12.9603 139.702 13.2283 140.77 13.2283 142.162ZM11.4043 142.162C11.4043 141.746 11.3843 141.37 11.3443 141.034C11.3043 140.69 11.2403 140.394 11.1523 140.146C11.0643 139.898 10.9443 139.706 10.7923 139.57C10.6403 139.434 10.4523 139.366 10.2283 139.366C10.0043 139.366 9.81631 139.434 9.66431 139.57C9.52031 139.706 9.40031 139.898 9.30431 140.146C9.21631 140.394 9.15231 140.69 9.11231 141.034C9.07231 141.37 9.05231 141.746 9.05231 142.162C9.05231 142.578 9.07231 142.958 9.11231 143.302C9.15231 143.646 9.21631 143.942 9.30431 144.19C9.40031 144.438 9.52031 144.63 9.66431 144.766C9.81631 144.902 10.0043 144.97 10.2283 144.97C10.4523 144.97 10.6403 144.902 10.7923 144.766C10.9443 144.63 11.0643 144.438 11.1523 144.19C11.2403 143.942 11.3043 143.646 11.3443 143.302C11.3843 142.958 11.4043 142.578 11.4043 142.162Z"
            fill="#838383" />
        <path
            d="M3.828 97.0274C3.516 97.4354 3.184 97.8794 2.832 98.3594C2.48 98.8394 2.184 99.3314 1.944 99.8354H3.828V97.0274ZM5.58 94.8434V99.8354H6.468V101.299H5.58V103.159H3.828V101.299H0.24V99.9914C0.416 99.6394 0.636 99.2434 0.9 98.8034C1.164 98.3554 1.456 97.8994 1.776 97.4354C2.104 96.9634 2.448 96.5034 2.808 96.0554C3.168 95.6074 3.528 95.2034 3.888 94.8434H5.58ZM13.2283 98.9834C13.2283 100.383 12.9603 101.459 12.4243 102.211C11.8963 102.955 11.1643 103.327 10.2283 103.327C9.29231 103.327 8.55631 102.955 8.02031 102.211C7.49231 101.459 7.22831 100.383 7.22831 98.9834C7.22831 98.2874 7.29631 97.6714 7.43231 97.1354C7.57631 96.5994 7.78031 96.1474 8.04431 95.7794C8.30831 95.4114 8.62431 95.1314 8.99231 94.9394C9.36031 94.7474 9.77231 94.6514 10.2283 94.6514C11.1643 94.6514 11.8963 95.0274 12.4243 95.7794C12.9603 96.5234 13.2283 97.5914 13.2283 98.9834ZM11.4043 98.9834C11.4043 98.5674 11.3843 98.1914 11.3443 97.8554C11.3043 97.5114 11.2403 97.2154 11.1523 96.9674C11.0643 96.7194 10.9443 96.5274 10.7923 96.3914C10.6403 96.2554 10.4523 96.1874 10.2283 96.1874C10.0043 96.1874 9.81631 96.2554 9.66431 96.3914C9.52031 96.5274 9.40031 96.7194 9.30431 96.9674C9.21631 97.2154 9.15231 97.5114 9.11231 97.8554C9.07231 98.1914 9.05231 98.5674 9.05231 98.9834C9.05231 99.3994 9.07231 99.7794 9.11231 100.123C9.15231 100.467 9.21631 100.763 9.30431 101.011C9.40031 101.259 9.52031 101.451 9.66431 101.587C9.81631 101.723 10.0043 101.791 10.2283 101.791C10.4523 101.791 10.6403 101.723 10.7923 101.587C10.9443 101.451 11.0643 101.259 11.1523 101.011C11.2403 100.763 11.3043 100.467 11.3443 100.123C11.3843 99.7794 11.4043 99.3994 11.4043 98.9834Z"
            fill="#838383" />
        <path
            d="M4.32 54.8821C4.32 54.6501 4.268 54.4461 4.164 54.2701C4.06 54.0861 3.88 53.9341 3.624 53.8141C3.368 53.6941 3.024 53.6021 2.592 53.5381C2.16 53.4741 1.616 53.4421 0.96 53.4421C1.048 52.6981 1.12 51.9421 1.176 51.1741C1.232 50.4061 1.276 49.6861 1.308 49.0141H5.808V50.5141H2.808C2.792 50.8021 2.772 51.0821 2.748 51.3541C2.732 51.6181 2.712 51.8501 2.688 52.0501C3.856 52.1301 4.716 52.4061 5.268 52.8781C5.828 53.3421 6.108 53.9901 6.108 54.8221C6.108 55.2061 6.04 55.5621 5.904 55.8901C5.768 56.2181 5.564 56.5021 5.292 56.7421C5.02 56.9821 4.676 57.1701 4.26 57.3061C3.852 57.4421 3.372 57.5101 2.82 57.5101C2.604 57.5101 2.376 57.4941 2.136 57.4621C1.904 57.4381 1.676 57.4021 1.452 57.3541C1.236 57.3141 1.04 57.2701 0.864 57.2221C0.688 57.1741 0.552 57.1261 0.456 57.0781L0.78 55.6021C0.98 55.6901 1.244 55.7781 1.572 55.8661C1.9 55.9461 2.292 55.9861 2.748 55.9861C3.3 55.9861 3.7 55.8781 3.948 55.6621C4.196 55.4381 4.32 55.1781 4.32 54.8821ZM13.2283 53.1541C13.2283 54.5541 12.9603 55.6301 12.4243 56.3821C11.8963 57.1261 11.1643 57.4981 10.2283 57.4981C9.29231 57.4981 8.55631 57.1261 8.02031 56.3821C7.49231 55.6301 7.22831 54.5541 7.22831 53.1541C7.22831 52.4581 7.29631 51.8421 7.43231 51.3061C7.57631 50.7701 7.78031 50.3181 8.04431 49.9501C8.30831 49.5821 8.62431 49.3021 8.99231 49.1101C9.36031 48.9181 9.77231 48.8221 10.2283 48.8221C11.1643 48.8221 11.8963 49.1981 12.4243 49.9501C12.9603 50.6941 13.2283 51.7621 13.2283 53.1541ZM11.4043 53.1541C11.4043 52.7381 11.3843 52.3621 11.3443 52.0261C11.3043 51.6821 11.2403 51.3861 11.1523 51.1381C11.0643 50.8901 10.9443 50.6981 10.7923 50.5621C10.6403 50.4261 10.4523 50.3581 10.2283 50.3581C10.0043 50.3581 9.81631 50.4261 9.66431 50.5621C9.52031 50.6981 9.40031 50.8901 9.30431 51.1381C9.21631 51.3861 9.15231 51.6821 9.11231 52.0261C9.07231 52.3621 9.05231 52.7381 9.05231 53.1541C9.05231 53.5701 9.07231 53.9501 9.11231 54.2941C9.15231 54.6381 9.21631 54.9341 9.30431 55.1821C9.40031 55.4301 9.52031 55.6221 9.66431 55.7581C9.81631 55.8941 10.0043 55.9621 10.2283 55.9621C10.4523 55.9621 10.6403 55.8941 10.7923 55.7581C10.9443 55.6221 11.0643 55.4301 11.1523 55.1821C11.2403 54.9341 11.3043 54.6381 11.3443 54.2941C11.3843 53.9501 11.4043 53.5701 11.4043 53.1541Z"
            fill="#838383" />
        <path
            d="M3.288 9.088C3.112 9.088 2.924 9.104 2.724 9.136C2.524 9.168 2.368 9.212 2.256 9.268C2.256 9.3 2.252 9.348 2.244 9.412C2.244 9.476 2.244 9.532 2.244 9.58C2.244 9.868 2.264 10.14 2.304 10.396C2.344 10.652 2.412 10.876 2.508 11.068C2.604 11.26 2.732 11.412 2.892 11.524C3.052 11.628 3.252 11.68 3.492 11.68C3.692 11.68 3.86 11.64 3.996 11.56C4.14 11.472 4.256 11.364 4.344 11.236C4.44 11.108 4.508 10.968 4.548 10.816C4.596 10.656 4.62 10.504 4.62 10.36C4.62 9.952 4.516 9.64 4.308 9.424C4.108 9.2 3.768 9.088 3.288 9.088ZM3.516 7.696C4.036 7.696 4.476 7.768 4.836 7.912C5.204 8.048 5.504 8.236 5.736 8.476C5.968 8.716 6.136 8.996 6.24 9.316C6.344 9.636 6.396 9.976 6.396 10.336C6.396 10.656 6.336 10.984 6.216 11.32C6.104 11.656 5.928 11.96 5.688 12.232C5.456 12.504 5.156 12.728 4.788 12.904C4.428 13.08 4 13.168 3.504 13.168C2.504 13.168 1.744 12.852 1.224 12.22C0.704 11.588 0.444 10.716 0.444 9.604C0.444 8.804 0.568 8.096 0.816 7.48C1.064 6.864 1.416 6.348 1.872 5.932C2.336 5.508 2.892 5.188 3.54 4.972C4.196 4.748 4.932 4.632 5.748 4.624C5.764 4.872 5.78 5.116 5.796 5.356C5.812 5.588 5.828 5.832 5.844 6.088C5.436 6.096 5.052 6.136 4.692 6.208C4.34 6.272 4.016 6.376 3.72 6.52C3.432 6.664 3.18 6.852 2.964 7.084C2.748 7.308 2.58 7.584 2.46 7.912C2.636 7.832 2.816 7.776 3 7.744C3.184 7.712 3.356 7.696 3.516 7.696ZM13.2283 8.824C13.2283 10.224 12.9603 11.3 12.4243 12.052C11.8963 12.796 11.1643 13.168 10.2283 13.168C9.29231 13.168 8.55631 12.796 8.02031 12.052C7.49231 11.3 7.22831 10.224 7.22831 8.824C7.22831 8.128 7.29631 7.512 7.43231 6.976C7.57631 6.44 7.78031 5.988 8.04431 5.62C8.30831 5.252 8.62431 4.972 8.99231 4.78C9.36031 4.588 9.77231 4.492 10.2283 4.492C11.1643 4.492 11.8963 4.868 12.4243 5.62C12.9603 6.364 13.2283 7.432 13.2283 8.824ZM11.4043 8.824C11.4043 8.408 11.3843 8.032 11.3443 7.696C11.3043 7.352 11.2403 7.056 11.1523 6.808C11.0643 6.56 10.9443 6.368 10.7923 6.232C10.6403 6.096 10.4523 6.028 10.2283 6.028C10.0043 6.028 9.81631 6.096 9.66431 6.232C9.52031 6.368 9.40031 6.56 9.30431 6.808C9.21631 7.056 9.15231 7.352 9.11231 7.696C9.07231 8.032 9.05231 8.408 9.05231 8.824C9.05231 9.24 9.07231 9.62 9.11231 9.964C9.15231 10.308 9.21631 10.604 9.30431 10.852C9.40031 11.1 9.52031 11.292 9.66431 11.428C9.81631 11.564 10.0043 11.632 10.2283 11.632C10.4523 11.632 10.6403 11.564 10.7923 11.428C10.9443 11.292 11.0643 11.1 11.1523 10.852C11.2403 10.604 11.3043 10.308 11.3443 9.964C11.3843 9.62 11.4043 9.24 11.4043 8.824Z"
            fill="#838383" />
        <path
            d="M789.32 39.552C789.32 39.32 789.268 39.116 789.164 38.94C789.06 38.756 788.88 38.604 788.624 38.484C788.368 38.364 788.024 38.272 787.592 38.208C787.16 38.144 786.616 38.112 785.96 38.112C786.048 37.368 786.12 36.612 786.176 35.844C786.232 35.076 786.276 34.356 786.308 33.684H790.808V35.184H787.808C787.792 35.472 787.772 35.752 787.748 36.024C787.732 36.288 787.712 36.52 787.688 36.72C788.856 36.8 789.716 37.076 790.268 37.548C790.828 38.012 791.108 38.66 791.108 39.492C791.108 39.876 791.04 40.232 790.904 40.56C790.768 40.888 790.564 41.172 790.292 41.412C790.02 41.652 789.676 41.84 789.26 41.976C788.852 42.112 788.372 42.18 787.82 42.18C787.604 42.18 787.376 42.164 787.136 42.132C786.904 42.108 786.676 42.072 786.452 42.024C786.236 41.984 786.04 41.94 785.864 41.892C785.688 41.844 785.552 41.796 785.456 41.748L785.78 40.272C785.98 40.36 786.244 40.448 786.572 40.536C786.9 40.616 787.292 40.656 787.748 40.656C788.3 40.656 788.7 40.548 788.948 40.332C789.196 40.108 789.32 39.848 789.32 39.552ZM798.228 37.824C798.228 39.224 797.96 40.3 797.424 41.052C796.896 41.796 796.164 42.168 795.228 42.168C794.292 42.168 793.556 41.796 793.02 41.052C792.492 40.3 792.228 39.224 792.228 37.824C792.228 37.128 792.296 36.512 792.432 35.976C792.576 35.44 792.78 34.988 793.044 34.62C793.308 34.252 793.624 33.972 793.992 33.78C794.36 33.588 794.772 33.492 795.228 33.492C796.164 33.492 796.896 33.868 797.424 34.62C797.96 35.364 798.228 36.432 798.228 37.824ZM796.404 37.824C796.404 37.408 796.384 37.032 796.344 36.696C796.304 36.352 796.24 36.056 796.152 35.808C796.064 35.56 795.944 35.368 795.792 35.232C795.64 35.096 795.452 35.028 795.228 35.028C795.004 35.028 794.816 35.096 794.664 35.232C794.52 35.368 794.4 35.56 794.304 35.808C794.216 36.056 794.152 36.352 794.112 36.696C794.072 37.032 794.052 37.408 794.052 37.824C794.052 38.24 794.072 38.62 794.112 38.964C794.152 39.308 794.216 39.604 794.304 39.852C794.4 40.1 794.52 40.292 794.664 40.428C794.816 40.564 795.004 40.632 795.228 40.632C795.452 40.632 795.64 40.564 795.792 40.428C795.944 40.292 796.064 40.1 796.152 39.852C796.24 39.604 796.304 39.308 796.344 38.964C796.384 38.62 796.404 38.24 796.404 37.824ZM809.158 42.168C807.806 42.168 806.774 41.792 806.062 41.04C805.358 40.288 805.006 39.22 805.006 37.836C805.006 37.148 805.114 36.536 805.33 36C805.546 35.456 805.842 35 806.218 34.632C806.594 34.256 807.042 33.972 807.562 33.78C808.082 33.588 808.646 33.492 809.254 33.492C809.606 33.492 809.926 33.52 810.214 33.576C810.502 33.624 810.754 33.684 810.97 33.756C811.186 33.82 811.366 33.888 811.51 33.96C811.654 34.032 811.758 34.088 811.822 34.128L811.282 35.64C811.026 35.504 810.726 35.388 810.382 35.292C810.046 35.196 809.662 35.148 809.23 35.148C808.942 35.148 808.658 35.196 808.378 35.292C808.106 35.388 807.862 35.544 807.646 35.76C807.438 35.968 807.27 36.24 807.142 36.576C807.014 36.912 806.95 37.32 806.95 37.8C806.95 38.184 806.99 38.544 807.07 38.88C807.158 39.208 807.294 39.492 807.478 39.732C807.67 39.972 807.918 40.164 808.222 40.308C808.526 40.444 808.894 40.512 809.326 40.512C809.598 40.512 809.842 40.496 810.058 40.464C810.274 40.432 810.466 40.396 810.634 40.356C810.802 40.308 810.95 40.256 811.078 40.2C811.206 40.144 811.322 40.092 811.426 40.044L811.942 41.544C811.678 41.704 811.306 41.848 810.826 41.976C810.346 42.104 809.79 42.168 809.158 42.168ZM818.791 38.832C818.791 39.328 818.719 39.784 818.575 40.2C818.431 40.608 818.223 40.96 817.951 41.256C817.679 41.544 817.351 41.768 816.967 41.928C816.591 42.088 816.167 42.168 815.695 42.168C815.231 42.168 814.807 42.088 814.423 41.928C814.047 41.768 813.723 41.544 813.451 41.256C813.179 40.96 812.967 40.608 812.815 40.2C812.663 39.784 812.587 39.328 812.587 38.832C812.587 38.336 812.663 37.884 812.815 37.476C812.975 37.068 813.191 36.72 813.463 36.432C813.743 36.144 814.071 35.92 814.447 35.76C814.831 35.6 815.247 35.52 815.695 35.52C816.151 35.52 816.567 35.6 816.943 35.76C817.327 35.92 817.655 36.144 817.927 36.432C818.199 36.72 818.411 37.068 818.563 37.476C818.715 37.884 818.791 38.336 818.791 38.832ZM816.967 38.832C816.967 38.28 816.855 37.848 816.631 37.536C816.415 37.216 816.103 37.056 815.695 37.056C815.287 37.056 814.971 37.216 814.747 37.536C814.523 37.848 814.411 38.28 814.411 38.832C814.411 39.384 814.523 39.824 814.747 40.152C814.971 40.472 815.287 40.632 815.695 40.632C816.103 40.632 816.415 40.472 816.631 40.152C816.855 39.824 816.967 39.384 816.967 38.832ZM823.644 38.652C823.644 38.076 823.568 37.668 823.416 37.428C823.272 37.188 823.02 37.068 822.66 37.068C822.548 37.068 822.432 37.076 822.312 37.092C822.192 37.1 822.076 37.112 821.964 37.128V42H820.176V35.904C820.328 35.864 820.504 35.824 820.704 35.784C820.912 35.736 821.128 35.696 821.352 35.664C821.584 35.624 821.82 35.596 822.06 35.58C822.3 35.556 822.536 35.544 822.768 35.544C823.224 35.544 823.592 35.604 823.872 35.724C824.16 35.836 824.396 35.972 824.58 36.132C824.836 35.948 825.128 35.804 825.456 35.7C825.792 35.596 826.1 35.544 826.38 35.544C826.884 35.544 827.296 35.616 827.616 35.76C827.944 35.896 828.204 36.092 828.396 36.348C828.588 36.604 828.72 36.908 828.792 37.26C828.864 37.612 828.9 38.004 828.9 38.436V42H827.112V38.652C827.112 38.076 827.036 37.668 826.884 37.428C826.74 37.188 826.488 37.068 826.128 37.068C826.032 37.068 825.896 37.092 825.72 37.14C825.552 37.188 825.412 37.248 825.3 37.32C825.356 37.504 825.392 37.7 825.408 37.908C825.424 38.108 825.432 38.324 825.432 38.556V42H823.644V38.652ZM834.568 38.892C834.568 38.34 834.444 37.9 834.196 37.572C833.948 37.236 833.58 37.068 833.092 37.068C832.932 37.068 832.784 37.076 832.648 37.092C832.512 37.1 832.4 37.112 832.312 37.128V40.356C832.424 40.428 832.568 40.488 832.744 40.536C832.928 40.584 833.112 40.608 833.296 40.608C834.144 40.608 834.568 40.036 834.568 38.892ZM836.392 38.844C836.392 39.332 836.332 39.776 836.212 40.176C836.092 40.576 835.916 40.92 835.684 41.208C835.452 41.496 835.164 41.72 834.82 41.88C834.476 42.04 834.08 42.12 833.632 42.12C833.384 42.12 833.152 42.096 832.936 42.048C832.72 42 832.512 41.932 832.312 41.844V44.22H830.524V35.904C830.684 35.856 830.868 35.812 831.076 35.772C831.284 35.724 831.5 35.684 831.724 35.652C831.956 35.62 832.188 35.596 832.42 35.58C832.66 35.556 832.888 35.544 833.104 35.544C833.624 35.544 834.088 35.624 834.496 35.784C834.904 35.936 835.248 36.156 835.528 36.444C835.808 36.724 836.02 37.068 836.164 37.476C836.316 37.884 836.392 38.34 836.392 38.844ZM837.466 38.892C837.466 38.332 837.55 37.844 837.718 37.428C837.894 37.004 838.122 36.652 838.402 36.372C838.682 36.092 839.002 35.88 839.362 35.736C839.73 35.592 840.106 35.52 840.49 35.52C841.386 35.52 842.094 35.796 842.614 36.348C843.134 36.892 843.394 37.696 843.394 38.76C843.394 38.864 843.39 38.98 843.382 39.108C843.374 39.228 843.366 39.336 843.358 39.432H839.302C839.342 39.8 839.514 40.092 839.818 40.308C840.122 40.524 840.53 40.632 841.042 40.632C841.37 40.632 841.69 40.604 842.002 40.548C842.322 40.484 842.582 40.408 842.782 40.32L843.022 41.772C842.926 41.82 842.798 41.868 842.638 41.916C842.478 41.964 842.298 42.004 842.098 42.036C841.906 42.076 841.698 42.108 841.474 42.132C841.25 42.156 841.026 42.168 840.802 42.168C840.234 42.168 839.738 42.084 839.314 41.916C838.898 41.748 838.55 41.52 838.27 41.232C837.998 40.936 837.794 40.588 837.658 40.188C837.53 39.788 837.466 39.356 837.466 38.892ZM841.666 38.208C841.658 38.056 841.63 37.908 841.582 37.764C841.542 37.62 841.474 37.492 841.378 37.38C841.29 37.268 841.174 37.176 841.03 37.104C840.894 37.032 840.722 36.996 840.514 36.996C840.314 36.996 840.142 37.032 839.998 37.104C839.854 37.168 839.734 37.256 839.638 37.368C839.542 37.48 839.466 37.612 839.41 37.764C839.362 37.908 839.326 38.056 839.302 38.208H841.666ZM844.714 34.116L846.502 33.828V35.688H848.65V37.176H846.502V39.396C846.502 39.772 846.566 40.072 846.694 40.296C846.83 40.52 847.098 40.632 847.498 40.632C847.69 40.632 847.886 40.616 848.086 40.584C848.294 40.544 848.482 40.492 848.65 40.428L848.902 41.82C848.686 41.908 848.446 41.984 848.182 42.048C847.918 42.112 847.594 42.144 847.21 42.144C846.722 42.144 846.318 42.08 845.998 41.952C845.678 41.816 845.422 41.632 845.23 41.4C845.038 41.16 844.902 40.872 844.822 40.536C844.75 40.2 844.714 39.828 844.714 39.42V34.116ZM849.571 38.892C849.571 38.332 849.655 37.844 849.823 37.428C849.999 37.004 850.227 36.652 850.507 36.372C850.787 36.092 851.107 35.88 851.467 35.736C851.835 35.592 852.211 35.52 852.595 35.52C853.491 35.52 854.199 35.796 854.719 36.348C855.239 36.892 855.499 37.696 855.499 38.76C855.499 38.864 855.495 38.98 855.487 39.108C855.479 39.228 855.471 39.336 855.463 39.432H851.407C851.447 39.8 851.619 40.092 851.923 40.308C852.227 40.524 852.635 40.632 853.147 40.632C853.475 40.632 853.795 40.604 854.107 40.548C854.427 40.484 854.687 40.408 854.887 40.32L855.127 41.772C855.031 41.82 854.903 41.868 854.743 41.916C854.583 41.964 854.403 42.004 854.203 42.036C854.011 42.076 853.803 42.108 853.579 42.132C853.355 42.156 853.131 42.168 852.907 42.168C852.339 42.168 851.843 42.084 851.419 41.916C851.003 41.748 850.655 41.52 850.375 41.232C850.103 40.936 849.899 40.588 849.763 40.188C849.635 39.788 849.571 39.356 849.571 38.892ZM853.771 38.208C853.763 38.056 853.735 37.908 853.687 37.764C853.647 37.62 853.579 37.492 853.483 37.38C853.395 37.268 853.279 37.176 853.135 37.104C852.999 37.032 852.827 36.996 852.619 36.996C852.419 36.996 852.247 37.032 852.103 37.104C851.959 37.168 851.839 37.256 851.743 37.368C851.647 37.48 851.571 37.612 851.515 37.764C851.467 37.908 851.431 38.056 851.407 38.208H853.771ZM858.403 38.796C858.403 39.348 858.527 39.792 858.775 40.128C859.023 40.464 859.391 40.632 859.879 40.632C860.039 40.632 860.187 40.628 860.323 40.62C860.459 40.604 860.571 40.588 860.659 40.572V37.32C860.547 37.248 860.399 37.188 860.215 37.14C860.039 37.092 859.859 37.068 859.675 37.068C858.827 37.068 858.403 37.644 858.403 38.796ZM862.447 41.796C862.287 41.844 862.103 41.892 861.895 41.94C861.687 41.98 861.467 42.016 861.235 42.048C861.011 42.08 860.779 42.104 860.539 42.12C860.307 42.144 860.083 42.156 859.867 42.156C859.347 42.156 858.883 42.08 858.475 41.928C858.067 41.776 857.723 41.56 857.443 41.28C857.163 40.992 856.947 40.648 856.795 40.248C856.651 39.84 856.579 39.384 856.579 38.88C856.579 38.368 856.643 37.908 856.771 37.5C856.899 37.084 857.083 36.732 857.323 36.444C857.563 36.156 857.855 35.936 858.199 35.784C858.551 35.632 858.951 35.556 859.399 35.556C859.647 35.556 859.867 35.58 860.059 35.628C860.259 35.676 860.459 35.744 860.659 35.832V32.976L862.447 32.688V41.796Z"
            fill="#838383" />
        <path fill-rule="evenodd" clip-rule="evenodd"
            d="M754.962 48.2115C760.823 48.2115 765.575 43.4631 765.575 37.6057C765.575 31.7483 760.823 27 754.962 27C749.101 27 744.35 31.7483 744.35 37.6057C744.35 43.4631 749.101 48.2115 754.962 48.2115Z"
            fill="#06864D" />
        <path
            d="M785.84 86.412C786.072 86.316 786.312 86.208 786.56 86.088C786.816 85.96 787.064 85.824 787.304 85.68C787.544 85.528 787.772 85.372 787.988 85.212C788.212 85.044 788.412 84.868 788.588 84.684H789.836V93H788.048V87.012C787.808 87.172 787.54 87.32 787.244 87.456C786.948 87.584 786.66 87.696 786.38 87.792L785.84 86.412ZM797.772 86.868C797.772 87.172 797.712 87.464 797.592 87.744C797.472 88.024 797.316 88.296 797.124 88.56C796.932 88.816 796.716 89.064 796.476 89.304C796.236 89.544 796 89.772 795.768 89.988C795.648 90.1 795.516 90.228 795.372 90.372C795.236 90.508 795.104 90.648 794.976 90.792C794.848 90.936 794.732 91.072 794.628 91.2C794.532 91.32 794.472 91.42 794.448 91.5H798.024V93H792.48C792.464 92.912 792.456 92.8 792.456 92.664C792.456 92.528 792.456 92.432 792.456 92.376C792.456 91.992 792.516 91.64 792.636 91.32C792.764 91 792.928 90.704 793.128 90.432C793.328 90.152 793.552 89.892 793.8 89.652C794.056 89.412 794.308 89.172 794.556 88.932C794.748 88.748 794.928 88.576 795.096 88.416C795.264 88.248 795.412 88.088 795.54 87.936C795.668 87.776 795.768 87.62 795.84 87.468C795.912 87.308 795.948 87.148 795.948 86.988C795.948 86.636 795.848 86.388 795.648 86.244C795.448 86.1 795.2 86.028 794.904 86.028C794.688 86.028 794.484 86.064 794.292 86.136C794.108 86.2 793.936 86.28 793.776 86.376C793.624 86.464 793.492 86.556 793.38 86.652C793.268 86.74 793.184 86.812 793.128 86.868L792.24 85.62C792.592 85.292 793 85.024 793.464 84.816C793.936 84.6 794.44 84.492 794.976 84.492C795.464 84.492 795.884 84.548 796.236 84.66C796.588 84.772 796.876 84.932 797.1 85.14C797.332 85.34 797.5 85.588 797.604 85.884C797.716 86.172 797.772 86.5 797.772 86.868ZM805.366 84.684H807.238V93H805.366V84.684ZM809.043 86.904C809.347 86.816 809.739 86.736 810.219 86.664C810.699 86.584 811.203 86.544 811.731 86.544C812.267 86.544 812.711 86.616 813.063 86.76C813.423 86.896 813.707 87.092 813.915 87.348C814.123 87.604 814.271 87.908 814.359 88.26C814.447 88.612 814.491 89.004 814.491 89.436V93H812.703V89.652C812.703 89.076 812.627 88.668 812.475 88.428C812.323 88.188 812.039 88.068 811.623 88.068C811.495 88.068 811.359 88.076 811.215 88.092C811.071 88.1 810.943 88.112 810.831 88.128V93H809.043V86.904ZM815.81 89.844C815.81 89.388 815.882 88.96 816.026 88.56C816.178 88.152 816.394 87.8 816.674 87.504C816.954 87.2 817.294 86.96 817.694 86.784C818.094 86.608 818.55 86.52 819.062 86.52C819.398 86.52 819.706 86.552 819.986 86.616C820.266 86.672 820.538 86.756 820.802 86.868L820.43 88.296C820.262 88.232 820.078 88.176 819.878 88.128C819.678 88.08 819.454 88.056 819.206 88.056C818.678 88.056 818.282 88.22 818.018 88.548C817.762 88.876 817.634 89.308 817.634 89.844C817.634 90.412 817.754 90.852 817.994 91.164C818.242 91.476 818.67 91.632 819.278 91.632C819.494 91.632 819.726 91.612 819.974 91.572C820.222 91.532 820.45 91.468 820.658 91.38L820.91 92.844C820.702 92.932 820.442 93.008 820.13 93.072C819.818 93.136 819.474 93.168 819.098 93.168C818.522 93.168 818.026 93.084 817.61 92.916C817.194 92.74 816.85 92.504 816.578 92.208C816.314 91.912 816.118 91.564 815.99 91.164C815.87 90.756 815.81 90.316 815.81 89.844ZM827.709 89.832C827.709 90.328 827.637 90.784 827.493 91.2C827.349 91.608 827.141 91.96 826.869 92.256C826.597 92.544 826.269 92.768 825.885 92.928C825.509 93.088 825.085 93.168 824.613 93.168C824.149 93.168 823.725 93.088 823.341 92.928C822.965 92.768 822.641 92.544 822.369 92.256C822.097 91.96 821.885 91.608 821.733 91.2C821.581 90.784 821.505 90.328 821.505 89.832C821.505 89.336 821.581 88.884 821.733 88.476C821.893 88.068 822.109 87.72 822.381 87.432C822.661 87.144 822.989 86.92 823.365 86.76C823.749 86.6 824.165 86.52 824.613 86.52C825.069 86.52 825.485 86.6 825.861 86.76C826.245 86.92 826.573 87.144 826.845 87.432C827.117 87.72 827.329 88.068 827.481 88.476C827.633 88.884 827.709 89.336 827.709 89.832ZM825.885 89.832C825.885 89.28 825.773 88.848 825.549 88.536C825.333 88.216 825.021 88.056 824.613 88.056C824.205 88.056 823.889 88.216 823.665 88.536C823.441 88.848 823.329 89.28 823.329 89.832C823.329 90.384 823.441 90.824 823.665 91.152C823.889 91.472 824.205 91.632 824.613 91.632C825.021 91.632 825.333 91.472 825.549 91.152C825.773 90.824 825.885 90.384 825.885 89.832ZM832.562 89.652C832.562 89.076 832.486 88.668 832.334 88.428C832.19 88.188 831.938 88.068 831.578 88.068C831.466 88.068 831.35 88.076 831.23 88.092C831.11 88.1 830.994 88.112 830.882 88.128V93H829.094V86.904C829.246 86.864 829.422 86.824 829.622 86.784C829.83 86.736 830.046 86.696 830.27 86.664C830.502 86.624 830.738 86.596 830.978 86.58C831.218 86.556 831.454 86.544 831.686 86.544C832.142 86.544 832.51 86.604 832.79 86.724C833.078 86.836 833.314 86.972 833.498 87.132C833.754 86.948 834.046 86.804 834.374 86.7C834.71 86.596 835.018 86.544 835.298 86.544C835.802 86.544 836.214 86.616 836.534 86.76C836.862 86.896 837.122 87.092 837.314 87.348C837.506 87.604 837.638 87.908 837.71 88.26C837.782 88.612 837.818 89.004 837.818 89.436V93H836.03V89.652C836.03 89.076 835.954 88.668 835.802 88.428C835.658 88.188 835.406 88.068 835.046 88.068C834.95 88.068 834.814 88.092 834.638 88.14C834.47 88.188 834.33 88.248 834.218 88.32C834.274 88.504 834.31 88.7 834.326 88.908C834.342 89.108 834.35 89.324 834.35 89.556V93H832.562V89.652ZM843.486 89.892C843.486 89.34 843.362 88.9 843.114 88.572C842.866 88.236 842.498 88.068 842.01 88.068C841.85 88.068 841.702 88.076 841.566 88.092C841.43 88.1 841.318 88.112 841.23 88.128V91.356C841.342 91.428 841.486 91.488 841.662 91.536C841.846 91.584 842.03 91.608 842.214 91.608C843.062 91.608 843.486 91.036 843.486 89.892ZM845.31 89.844C845.31 90.332 845.25 90.776 845.13 91.176C845.01 91.576 844.834 91.92 844.602 92.208C844.37 92.496 844.082 92.72 843.738 92.88C843.394 93.04 842.998 93.12 842.55 93.12C842.302 93.12 842.07 93.096 841.854 93.048C841.638 93 841.43 92.932 841.23 92.844V95.22H839.442V86.904C839.602 86.856 839.786 86.812 839.994 86.772C840.202 86.724 840.418 86.684 840.642 86.652C840.874 86.62 841.106 86.596 841.338 86.58C841.578 86.556 841.806 86.544 842.022 86.544C842.542 86.544 843.006 86.624 843.414 86.784C843.822 86.936 844.166 87.156 844.446 87.444C844.726 87.724 844.938 88.068 845.082 88.476C845.234 88.884 845.31 89.34 845.31 89.844ZM849.204 93.12C848.684 93.112 848.26 93.056 847.932 92.952C847.612 92.848 847.356 92.704 847.164 92.52C846.98 92.328 846.852 92.1 846.78 91.836C846.716 91.564 846.684 91.26 846.684 90.924V83.976L848.472 83.688V90.564C848.472 90.724 848.484 90.868 848.508 90.996C848.532 91.124 848.576 91.232 848.64 91.32C848.712 91.408 848.812 91.48 848.94 91.536C849.068 91.592 849.24 91.628 849.456 91.644L849.204 93.12ZM850.181 89.892C850.181 89.332 850.265 88.844 850.433 88.428C850.609 88.004 850.837 87.652 851.117 87.372C851.397 87.092 851.717 86.88 852.077 86.736C852.445 86.592 852.821 86.52 853.205 86.52C854.101 86.52 854.809 86.796 855.329 87.348C855.849 87.892 856.109 88.696 856.109 89.76C856.109 89.864 856.105 89.98 856.097 90.108C856.089 90.228 856.081 90.336 856.073 90.432H852.017C852.057 90.8 852.229 91.092 852.533 91.308C852.837 91.524 853.245 91.632 853.757 91.632C854.085 91.632 854.405 91.604 854.717 91.548C855.037 91.484 855.297 91.408 855.497 91.32L855.737 92.772C855.641 92.82 855.513 92.868 855.353 92.916C855.193 92.964 855.013 93.004 854.813 93.036C854.621 93.076 854.413 93.108 854.189 93.132C853.965 93.156 853.741 93.168 853.517 93.168C852.949 93.168 852.453 93.084 852.029 92.916C851.613 92.748 851.265 92.52 850.985 92.232C850.713 91.936 850.509 91.588 850.373 91.188C850.245 90.788 850.181 90.356 850.181 89.892ZM854.381 89.208C854.373 89.056 854.345 88.908 854.297 88.764C854.257 88.62 854.189 88.492 854.093 88.38C854.005 88.268 853.889 88.176 853.745 88.104C853.609 88.032 853.437 87.996 853.229 87.996C853.029 87.996 852.857 88.032 852.713 88.104C852.569 88.168 852.449 88.256 852.353 88.368C852.257 88.48 852.181 88.612 852.125 88.764C852.077 88.908 852.041 89.056 852.017 89.208H854.381ZM857.428 85.116L859.216 84.828V86.688H861.364V88.176H859.216V90.396C859.216 90.772 859.28 91.072 859.408 91.296C859.544 91.52 859.812 91.632 860.212 91.632C860.404 91.632 860.6 91.616 860.8 91.584C861.008 91.544 861.196 91.492 861.364 91.428L861.616 92.82C861.4 92.908 861.16 92.984 860.896 93.048C860.632 93.112 860.308 93.144 859.924 93.144C859.436 93.144 859.032 93.08 858.712 92.952C858.392 92.816 858.136 92.632 857.944 92.4C857.752 92.16 857.616 91.872 857.536 91.536C857.464 91.2 857.428 90.828 857.428 90.42V85.116ZM862.286 89.892C862.286 89.332 862.37 88.844 862.538 88.428C862.714 88.004 862.942 87.652 863.222 87.372C863.502 87.092 863.822 86.88 864.182 86.736C864.55 86.592 864.926 86.52 865.31 86.52C866.206 86.52 866.914 86.796 867.434 87.348C867.954 87.892 868.214 88.696 868.214 89.76C868.214 89.864 868.21 89.98 868.202 90.108C868.194 90.228 868.186 90.336 868.178 90.432H864.122C864.162 90.8 864.334 91.092 864.638 91.308C864.942 91.524 865.35 91.632 865.862 91.632C866.19 91.632 866.51 91.604 866.822 91.548C867.142 91.484 867.402 91.408 867.602 91.32L867.842 92.772C867.746 92.82 867.618 92.868 867.458 92.916C867.298 92.964 867.118 93.004 866.918 93.036C866.726 93.076 866.518 93.108 866.294 93.132C866.07 93.156 865.846 93.168 865.622 93.168C865.054 93.168 864.558 93.084 864.134 92.916C863.718 92.748 863.37 92.52 863.09 92.232C862.818 91.936 862.614 91.588 862.478 91.188C862.35 90.788 862.286 90.356 862.286 89.892ZM866.486 89.208C866.478 89.056 866.45 88.908 866.402 88.764C866.362 88.62 866.294 88.492 866.198 88.38C866.11 88.268 865.994 88.176 865.85 88.104C865.714 88.032 865.542 87.996 865.334 87.996C865.134 87.996 864.962 88.032 864.818 88.104C864.674 88.168 864.554 88.256 864.458 88.368C864.362 88.48 864.286 88.612 864.23 88.764C864.182 88.908 864.146 89.056 864.122 89.208H866.486ZM871.118 89.796C871.118 90.348 871.242 90.792 871.49 91.128C871.738 91.464 872.106 91.632 872.594 91.632C872.754 91.632 872.902 91.628 873.038 91.62C873.174 91.604 873.286 91.588 873.374 91.572V88.32C873.262 88.248 873.114 88.188 872.93 88.14C872.754 88.092 872.574 88.068 872.39 88.068C871.542 88.068 871.118 88.644 871.118 89.796ZM875.162 92.796C875.002 92.844 874.818 92.892 874.61 92.94C874.402 92.98 874.182 93.016 873.95 93.048C873.726 93.08 873.494 93.104 873.254 93.12C873.022 93.144 872.798 93.156 872.582 93.156C872.062 93.156 871.598 93.08 871.19 92.928C870.782 92.776 870.438 92.56 870.158 92.28C869.878 91.992 869.662 91.648 869.51 91.248C869.366 90.84 869.294 90.384 869.294 89.88C869.294 89.368 869.358 88.908 869.486 88.5C869.614 88.084 869.798 87.732 870.038 87.444C870.278 87.156 870.57 86.936 870.914 86.784C871.266 86.632 871.666 86.556 872.114 86.556C872.362 86.556 872.582 86.58 872.774 86.628C872.974 86.676 873.174 86.744 873.374 86.832V83.976L875.162 83.688V92.796Z"
            fill="#838383" />
        <path fill-rule="evenodd" clip-rule="evenodd"
            d="M754.962 99.4722C760.823 99.4722 765.575 94.7239 765.575 88.8665C765.575 83.0091 760.823 78.2607 754.962 78.2607C749.101 78.2607 744.35 83.0091 744.35 88.8665C744.35 94.7239 749.101 99.4722 754.962 99.4722Z"
            fill="#59BCFB" />
        <path
            d="M794.128 141.684V143.28H791.62V150H789.748V143.28H787.24V141.684H794.128ZM800.213 146.832C800.213 147.328 800.141 147.784 799.997 148.2C799.853 148.608 799.645 148.96 799.373 149.256C799.101 149.544 798.773 149.768 798.389 149.928C798.013 150.088 797.589 150.168 797.117 150.168C796.653 150.168 796.229 150.088 795.845 149.928C795.469 149.768 795.145 149.544 794.873 149.256C794.601 148.96 794.389 148.608 794.237 148.2C794.085 147.784 794.009 147.328 794.009 146.832C794.009 146.336 794.085 145.884 794.237 145.476C794.397 145.068 794.613 144.72 794.885 144.432C795.165 144.144 795.493 143.92 795.869 143.76C796.253 143.6 796.669 143.52 797.117 143.52C797.573 143.52 797.989 143.6 798.365 143.76C798.749 143.92 799.077 144.144 799.349 144.432C799.621 144.72 799.833 145.068 799.985 145.476C800.137 145.884 800.213 146.336 800.213 146.832ZM798.389 146.832C798.389 146.28 798.277 145.848 798.053 145.536C797.837 145.216 797.525 145.056 797.117 145.056C796.709 145.056 796.393 145.216 796.169 145.536C795.945 145.848 795.833 146.28 795.833 146.832C795.833 147.384 795.945 147.824 796.169 148.152C796.393 148.472 796.709 148.632 797.117 148.632C797.525 148.632 797.837 148.472 798.053 148.152C798.277 147.824 798.389 147.384 798.389 146.832ZM801.538 142.116L803.326 141.828V143.688H805.474V145.176H803.326V147.396C803.326 147.772 803.39 148.072 803.518 148.296C803.654 148.52 803.922 148.632 804.322 148.632C804.514 148.632 804.71 148.616 804.91 148.584C805.118 148.544 805.306 148.492 805.474 148.428L805.726 149.82C805.51 149.908 805.27 149.984 805.006 150.048C804.742 150.112 804.418 150.144 804.034 150.144C803.546 150.144 803.142 150.08 802.822 149.952C802.502 149.816 802.246 149.632 802.054 149.4C801.862 149.16 801.726 148.872 801.646 148.536C801.574 148.2 801.538 147.828 801.538 147.42V142.116ZM809.107 148.752C809.283 148.752 809.451 148.748 809.611 148.74C809.771 148.732 809.899 148.72 809.995 148.704V147.348C809.923 147.332 809.815 147.316 809.671 147.3C809.527 147.284 809.395 147.276 809.275 147.276C809.107 147.276 808.947 147.288 808.795 147.312C808.651 147.328 808.523 147.364 808.411 147.42C808.299 147.476 808.211 147.552 808.147 147.648C808.083 147.744 808.051 147.864 808.051 148.008C808.051 148.288 808.143 148.484 808.327 148.596C808.519 148.7 808.779 148.752 809.107 148.752ZM808.963 143.52C809.491 143.52 809.931 143.58 810.283 143.7C810.635 143.82 810.915 143.992 811.123 144.216C811.339 144.44 811.491 144.712 811.579 145.032C811.667 145.352 811.711 145.708 811.711 146.1V149.82C811.455 149.876 811.099 149.94 810.643 150.012C810.187 150.092 809.635 150.132 808.987 150.132C808.579 150.132 808.207 150.096 807.871 150.024C807.543 149.952 807.259 149.836 807.019 149.676C806.779 149.508 806.595 149.292 806.467 149.028C806.339 148.764 806.275 148.44 806.275 148.056C806.275 147.688 806.347 147.376 806.491 147.12C806.643 146.864 806.843 146.66 807.091 146.508C807.339 146.356 807.623 146.248 807.943 146.184C808.263 146.112 808.595 146.076 808.939 146.076C809.171 146.076 809.375 146.088 809.551 146.112C809.735 146.128 809.883 146.152 809.995 146.184V146.016C809.995 145.712 809.903 145.468 809.719 145.284C809.535 145.1 809.215 145.008 808.759 145.008C808.455 145.008 808.155 145.032 807.859 145.08C807.563 145.12 807.307 145.18 807.091 145.26L806.863 143.82C806.967 143.788 807.095 143.756 807.247 143.724C807.407 143.684 807.579 143.652 807.763 143.628C807.947 143.596 808.139 143.572 808.339 143.556C808.547 143.532 808.755 143.52 808.963 143.52ZM815.848 150.12C815.328 150.112 814.904 150.056 814.576 149.952C814.256 149.848 814 149.704 813.808 149.52C813.624 149.328 813.496 149.1 813.424 148.836C813.36 148.564 813.328 148.26 813.328 147.924V140.976L815.116 140.688V147.564C815.116 147.724 815.128 147.868 815.152 147.996C815.176 148.124 815.22 148.232 815.284 148.32C815.356 148.408 815.456 148.48 815.584 148.536C815.712 148.592 815.884 148.628 816.1 148.644L815.848 150.12ZM819.112 144.792C819.112 145.152 818.996 145.428 818.764 145.62C818.54 145.804 818.284 145.896 817.996 145.896C817.708 145.896 817.448 145.804 817.216 145.62C816.992 145.428 816.88 145.152 816.88 144.792C816.88 144.432 816.992 144.16 817.216 143.976C817.448 143.784 817.708 143.688 817.996 143.688C818.284 143.688 818.54 143.784 818.764 143.976C818.996 144.16 819.112 144.432 819.112 144.792ZM819.112 149.052C819.112 149.412 818.996 149.688 818.764 149.88C818.54 150.064 818.284 150.156 817.996 150.156C817.708 150.156 817.448 150.064 817.216 149.88C816.992 149.688 816.88 149.412 816.88 149.052C816.88 148.692 816.992 148.42 817.216 148.236C817.448 148.044 817.708 147.948 817.996 147.948C818.284 147.948 818.54 148.044 818.764 148.236C818.996 148.42 819.112 148.692 819.112 149.052ZM825.643 146.088C825.467 146.088 825.279 146.104 825.079 146.136C824.879 146.168 824.723 146.212 824.611 146.268C824.611 146.3 824.607 146.348 824.599 146.412C824.599 146.476 824.599 146.532 824.599 146.58C824.599 146.868 824.619 147.14 824.659 147.396C824.699 147.652 824.767 147.876 824.863 148.068C824.959 148.26 825.087 148.412 825.247 148.524C825.407 148.628 825.607 148.68 825.847 148.68C826.047 148.68 826.215 148.64 826.351 148.56C826.495 148.472 826.611 148.364 826.699 148.236C826.795 148.108 826.863 147.968 826.903 147.816C826.951 147.656 826.975 147.504 826.975 147.36C826.975 146.952 826.871 146.64 826.663 146.424C826.463 146.2 826.123 146.088 825.643 146.088ZM825.871 144.696C826.391 144.696 826.831 144.768 827.191 144.912C827.559 145.048 827.859 145.236 828.091 145.476C828.323 145.716 828.491 145.996 828.595 146.316C828.699 146.636 828.751 146.976 828.751 147.336C828.751 147.656 828.691 147.984 828.571 148.32C828.459 148.656 828.283 148.96 828.043 149.232C827.811 149.504 827.511 149.728 827.143 149.904C826.783 150.08 826.355 150.168 825.859 150.168C824.859 150.168 824.099 149.852 823.579 149.22C823.059 148.588 822.799 147.716 822.799 146.604C822.799 145.804 822.923 145.096 823.171 144.48C823.419 143.864 823.771 143.348 824.227 142.932C824.691 142.508 825.247 142.188 825.895 141.972C826.551 141.748 827.287 141.632 828.103 141.624C828.119 141.872 828.135 142.116 828.151 142.356C828.167 142.588 828.183 142.832 828.199 143.088C827.791 143.096 827.407 143.136 827.047 143.208C826.695 143.272 826.371 143.376 826.075 143.52C825.787 143.664 825.535 143.852 825.319 144.084C825.103 144.308 824.935 144.584 824.815 144.912C824.991 144.832 825.171 144.776 825.355 144.744C825.539 144.712 825.711 144.696 825.871 144.696ZM835.128 143.868C835.128 144.172 835.068 144.464 834.948 144.744C834.828 145.024 834.672 145.296 834.48 145.56C834.288 145.816 834.072 146.064 833.832 146.304C833.592 146.544 833.356 146.772 833.124 146.988C833.004 147.1 832.872 147.228 832.728 147.372C832.592 147.508 832.46 147.648 832.332 147.792C832.204 147.936 832.088 148.072 831.984 148.2C831.888 148.32 831.828 148.42 831.804 148.5H835.38V150H829.836C829.82 149.912 829.812 149.8 829.812 149.664C829.812 149.528 829.812 149.432 829.812 149.376C829.812 148.992 829.872 148.64 829.992 148.32C830.12 148 830.284 147.704 830.484 147.432C830.684 147.152 830.908 146.892 831.156 146.652C831.412 146.412 831.664 146.172 831.912 145.932C832.104 145.748 832.284 145.576 832.452 145.416C832.62 145.248 832.768 145.088 832.896 144.936C833.024 144.776 833.124 144.62 833.196 144.468C833.268 144.308 833.304 144.148 833.304 143.988C833.304 143.636 833.204 143.388 833.004 143.244C832.804 143.1 832.556 143.028 832.26 143.028C832.044 143.028 831.84 143.064 831.648 143.136C831.464 143.2 831.292 143.28 831.132 143.376C830.98 143.464 830.848 143.556 830.736 143.652C830.624 143.74 830.54 143.812 830.484 143.868L829.596 142.62C829.948 142.292 830.356 142.024 830.82 141.816C831.292 141.6 831.796 141.492 832.332 141.492C832.82 141.492 833.24 141.548 833.592 141.66C833.944 141.772 834.232 141.932 834.456 142.14C834.688 142.34 834.856 142.588 834.96 142.884C835.072 143.172 835.128 143.5 835.128 143.868Z"
            fill="#838383" />
        <path fill-rule="evenodd" clip-rule="evenodd"
            d="M748.613 152.92C754.474 152.92 759.225 148.172 759.225 142.315C759.225 136.457 754.474 131.709 748.613 131.709C742.751 131.709 738 136.457 738 142.315C738 148.172 742.751 152.92 748.613 152.92Z"
            fill="#06864D" />
        <path fill-rule="evenodd" clip-rule="evenodd"
            d="M762.763 152.92C768.624 152.92 773.376 148.172 773.376 142.315C773.376 136.457 768.624 131.709 762.763 131.709C756.902 131.709 752.15 136.457 752.15 142.315C752.15 148.172 756.902 152.92 762.763 152.92Z"
            fill="#59BCFB" style="mix-blend-mode:multiply" />
        <defs>
            <linearGradient id="paint0_linear_0_1" x1="-27.4073" y1="11.6189" x2="-27.4073" y2="363.241"
                gradientUnits="userSpaceOnUse">
                <stop stop-color="#59BCFB" />
                <stop offset="1" stop-color="#E1BFE9" stop-opacity="0.500085" />
            </linearGradient>
            <linearGradient id="paint1_linear_0_1" x1="175.377" y1="128.643" x2="175.377" y2="367.068"
                gradientUnits="userSpaceOnUse">
                <stop stop-color="#06864D" />
                <stop offset="1" stop-color="#D3FFEC" stop-opacity="0.54" />
            </linearGradient>
        </defs>
    </svg>